<svg version="1.1" xmlns="http://www.w3.org/2000/svg" style="display: block;" viewBox="0 0 2048 2048" width="2048" height="2048" preserveAspectRatio="none" xmlns:c2pa="http://c2pa.org/manifest"><metadata><c2pa:manifest>AAAMZ2p1bWIAAAAeanVtZGMycGEAEQAQgAAAqgA4m3EDYzJwYQAAAAxBanVtYgAAAEdqdW1kYzJtYQARABCAAACqADibcQN1cm46YzJwYTpkZjYzMzQ2MC02MWQ4LTQ5NTItYjA1Ny1lMGIzN2FjMzJjMmEAAAAB4mp1bWIAAAApanVtZGMyYXMAEQAQgAAAqgA4m3EDYzJwYS5hc3NlcnRpb25zAAAAAO1qdW1iAAAAQWp1bWRjYm9yABEAEIAAAKoAOJtxE2MycGEuYWN0aW9ucy52MgAAAAAYYzJzaNrsZS40Py0AaU/0ykDUaDEAAACkY2JvcqFnYWN0aW9uc4GjZmFjdGlvbmxjMnBhLmNyZWF0ZWRxZGlnaXRhbFNvdXJjZVR5cGV4Rmh0dHA6Ly9jdi5pcHRjLm9yZy9uZXdzY29kZXMvZGlnaXRhbHNvdXJjZXR5cGUvdHJhaW5lZEFsZ29yaXRobWljTWVkaWFrZGVzY3JpcHRpb252Q3JlYXRlZCBieSBSZWNyYWZ0IEFJLgAAAMRqdW1iAAAAQGp1bWRjYm9yABEAEIAAAKoAOJtxE2MycGEuaGFzaC5kYXRhAAAAABhjMnNoTG/lxE2picGrz9LcG62g5wAAAHxjYm9ypWpleGNsdXNpb25zgaJlc3RhcnQY22ZsZW5ndGgZEIxkbmFtZW5qdW1iZiBtYW5pZmVzdGNhbGdmc2hhMjU2ZGhhc2hYILys1ruAHrAN0+iQwUY6jH9BEdDvsVBQ82QCVRx/YCYaY3BhZEkAAAAAAAAAAAAAAAI0anVtYgAAACdqdW1kYzJjbAARABCAAACqADibcQNjMnBhLmNsYWltLnYyAAAAAgVjYm9ypmppbnN0YW5jZUlEeCx4bXA6aWlkOmEyMmRiMjI2LThjZTctNDZhNy04Njc3LTM1NjZjZjQ1OGRjMnRjbGFpbV9nZW5lcmF0b3JfaW5mb6NkbmFtZWpyZWNyYWZ0LmFpZ3ZlcnNpb254KDgxY2U4MmUyYzVjM2NiZmJlOGM2ZmJlMTc5ZDVmOGQ5MWM0MDljZTF3b3JnLmNvbnRlbnRhdXRoLmMycGFfcnNmMC45MC43aXNpZ25hdHVyZXhNc2VsZiNqdW1iZj0vYzJwYS91cm46YzJwYTpkZjYzMzQ2MC02MWQ4LTQ5NTItYjA1Ny1lMGIzN2FjMzJjMmEvYzJwYS5zaWduYXR1cmVyY3JlYXRlZF9hc3NlcnRpb25zgqJjdXJseCpzZWxmI2p1bWJmPWMycGEuYXNzZXJ0aW9ucy9jMnBhLmFjdGlvbnMudjJkaGFzaFggYT0uu/gqLA1ShWK+gAVOd24CxAdlWHmiA2mnhH/KwreiY3VybHgpc2VsZiNqdW1iZj1jMnBhLmFzc2VydGlvbnMvYzJwYS5oYXNoLmRhdGFkaGFzaFgg2j51CkFJmxOqcsAGgj+k0sK1isHwuT6GMHvAdGkf4mBoZGM6dGl0bGV4GlJlY3JhZnQgQUkgR2VuZXJhdGVkIEltYWdlY2FsZ2ZzaGEyNTYAAAfcanVtYgAAAChqdW1kYzJjcwARABCAAACqADibcQNjMnBhLnNpZ25hdHVyZQAAAAesY2JvctKEWQOwogEmGCGCWQHnMIIB4zCCAYmgAwIBAgIJALfeWmNDUW56MAoGCCqGSM49BAMCMEAxHzAdBgNVBAMMFlJlY3JhZnQgU3RhZ2luZyBEZXYgQ0ExEDAOBgNVBAoMB1JlY3JhZnQxCzAJBgNVBAYTAlVTMB4XDTI2MDYxMjE5NDM1MFoXDTI3MDYxMjE5NDM1MFowNzELMAkGA1UEBhMCVVMxEzARBgNVBAoTClJlY3JhZnQgQUkxEzARBgNVBAMTCnJlY3JhZnQuYWkwWTATBgcqhkjOPQIBBggqhkjOPQMBBwNCAARKaTVbACsg/DeG3LeOxYdID/VA6EFG73E6Oknb+KIiCFJygRUz4ueN2z/t2qYb6CIUvS8RvgOiiClfoqsYtw81o3UwczAMBgNVHRMBAf8EAjAAMA4GA1UdDwEB/wQEAwIGwDATBgNVHSUEDDAKBggrBgEFBQcDBDAdBgNVHQ4EFgQULzHpBen96SL1y4IPHa8MkMshXf0wHwYDVR0jBBgwFoAUAgsqOBrKqpdK//m/kxZo7ZR4ebcwCgYIKoZIzj0EAwIDSAAwRQIgU8hKW0aXvvk8SQgVFNkax69Ym9ae8GsT2RZTQw+B51ACIQC0D4BkEoRD4N0r2ZRkNy0HZaW3WICy/QZGN95ilF4yzFkBvTCCAbkwggFfoAMCAQICCQCc+Wg7T6ATbzAKBggqhkjOPQQDAjBAMR8wHQYDVQQDDBZSZWNyYWZ0IFN0YWdpbmcgRGV2IENBMRAwDgYDVQQKDAdSZWNyYWZ0MQswCQYDVQQGEwJVUzAeFw0yNjA2MTIxOTQwMTZaFw0yODA2MTExOTQwMTZaMEAxHzAdBgNVBAMMFlJlY3JhZnQgU3RhZ2luZyBEZXYgQ0ExEDAOBgNVBAoMB1JlY3JhZnQxCzAJBgNVBAYTAlVTMFkwEwYHKoZIzj0CAQYIKoZIzj0DAQcDQgAEQ9IQBlcVbKaKPYrQSfOhL/00s7xUDC7RinIuLO/I1k99y9yh6oWF9kPxaP+tx1v1PeOL3yrVquJ730H0ZGiDyqNCMEAwDwYDVR0TAQH/BAUwAwEB/zAOBgNVHQ8BAf8EBAMCAYYwHQYDVR0OBBYEFAILKjgayqqXSv/5v5MWaO2UeHm3MAoGCCqGSM49BAMCA0gAMEUCIFQwNImLlYDeQhjgF+ZiqTbgcuzSqmOJw3Q2lQ/hu83FAiEA9O8cLm/xfoVLqB4jtdbuHzi3WL+p2RN+DRGkwpYswVuhY3BhZFkDpAAAAAAAAAAAAAAAAAAAAAAAAAAAAAAAAAAAAAAAAAAAAAAAAAAAAAAAAAAAAAAAAAAAAAAAAAAAAAAAAAAAAAAAAAAAAAAAAAAAAAAAAAAAAAAAAAAAAAAAAAAAAAAAAAAAAAAAAAAAAAAAAAAAAAAAAAAAAAAAAAAAAAAAAAAAAAAAAAAAAAAAAAAAAAAAAAAAAAAAAAAAAAAAAAAAAAAAAAAAAAAAAAAAAAAAAAAAAAAAAAAAAAAAAAAAAAAAAAAAAAAAAAAAAAAAAAAAAAAAAAAAAAAAAAAAAAAAAAAAAAAAAAAAAAAAAAAAAAAAAAAAAAAAAAAAAAAAAAAAAAAAAAAAAAAAAAAAAAAAAAAAAAAAAAAAAAAAAAAAAAAAAAAAAAAAAAAAAAAAAAAAAAAAAAAAAAAAAAAAAAAAAAAAAAAAAAAAAAAAAAAAAAAAAAAAAAAAAAAAAAAAAAAAAAAAAAAAAAAAAAAAAAAAAAAAAAAAAAAAAAAAAAAAAAAAAAAAAAAAAAAAAAAAAAAAAAAAAAAAAAAAAAAAAAAAAAAAAAAAAAAAAAAAAAAAAAAAAAAAAAAAAAAAAAAAAAAAAAAAAAAAAAAAAAAAAAAAAAAAAAAAAAAAAAAAAAAAAAAAAAAAAAAAAAAAAAAAAAAAAAAAAAAAAAAAAAAAAAAAAAAAAAAAAAAAAAAAAAAAAAAAAAAAAAAAAAAAAAAAAAAAAAAAAAAAAAAAAAAAAAAAAAAAAAAAAAAAAAAAAAAAAAAAAAAAAAAAAAAAAAAAAAAAAAAAAAAAAAAAAAAAAAAAAAAAAAAAAAAAAAAAAAAAAAAAAAAAAAAAAAAAAAAAAAAAAAAAAAAAAAAAAAAAAAAAAAAAAAAAAAAAAAAAAAAAAAAAAAAAAAAAAAAAAAAAAAAAAAAAAAAAAAAAAAAAAAAAAAAAAAAAAAAAAAAAAAAAAAAAAAAAAAAAAAAAAAAAAAAAAAAAAAAAAAAAAAAAAAAAAAAAAAAAAAAAAAAAAAAAAAAAAAAAAAAAAAAAAAAAAAAAAAAAAAAAAAAAAAAAAAAAAAAAAAAAAAAAAAAAAAAAAAAAAAAAAAAAAAAAAAAAAAAAAAAAAAAAAAAAAAAAAAAAAAAAAAAAAAAAAAAAAAAAAAAAAAAAAAAAAAAAAAAAAAAAAAAAAAAAAAAAAAAAAAAAAAAAAAAAAAAAAAAAAAAAAAAAAAAAAAAAAAAAAAAAAAAAAAAAAAAA9lhAJlcFjy7O+/NVnL+Z1NqiC8m+mA+OCfXAhvKUU7BMbQ2jEP7hir4NFyuJSx/pom0lrNgUiR/H6TfBoHZIvcUy8w==</c2pa:manifest></metadata>
<path transform="translate(0,0)" fill="rgb(250,245,235)" d="M 0 0 L 2048 0 L 2048 2048 L 0 2048 L 0 0 z"/>
<path transform="translate(0,0)" fill="rgb(34,24,17)" d="M 613.013 1371.07 C 638.135 1357.59 657.877 1341.53 665.639 1313.05 C 681.276 1255.67 650.082 1213.47 629.315 1166.33 C 618.186 1141.51 609.475 1115.67 603.303 1089.18 C 556.915 889.949 647.915 684.057 826.474 584.246 C 932.477 526.029 1057.4 512.742 1173.27 547.36 C 1289.63 581.128 1389.18 664.149 1447.02 770.184 C 1504.07 875.204 1517.16 998.557 1483.42 1113.21 C 1448 1231.55 1367.08 1331.01 1258.43 1389.77 C 1162.19 1441.87 1035.94 1461.54 929.91 1430.14 C 875.823 1414.13 831.325 1397.57 777.003 1426.77 C 753.307 1439.51 738.795 1457.65 724.36 1479.75 C 713.182 1500.53 697.561 1516.2 675.418 1524.88 C 650.254 1534.68 622.201 1533.91 597.608 1522.76 C 533.389 1493.72 529.789 1412.12 592.864 1379.66 C 599.689 1376.15 605.796 1373.71 613.013 1371.07 z"/>
<path transform="translate(0,0)" fill="rgb(251,187,45)" d="M 613.013 1371.07 C 622.674 1370.01 631.674 1368.47 641.438 1368.65 C 695.943 1369.66 745.559 1421.8 724.775 1477.12 C 724.365 1478.22 724.429 1478.58 724.36 1479.75 C 713.182 1500.53 697.561 1516.2 675.418 1524.88 C 650.254 1534.68 622.201 1533.91 597.608 1522.76 C 533.389 1493.72 529.789 1412.12 592.864 1379.66 C 599.689 1376.15 605.796 1373.71 613.013 1371.07 z"/>
<path transform="translate(0,0)" fill="rgb(250,245,235)" d="M 1021.52 671.41 C 1137.72 661.638 1261.8 760.234 1235.84 884.447 C 1226.27 930.247 1200.53 958.803 1162.24 983.603 C 1197.11 1002.54 1225.01 1031.01 1236.12 1069.63 C 1264.52 1168.36 1189.21 1256.08 1098.86 1282.67 C 1040.79 1299.47 978.44 1292.58 925.45 1263.5 C 870.255 1233.05 810.139 1167.33 847.12 1101.51 C 850.051 1097.09 853.392 1092.96 857.097 1089.17 C 872.34 1073.76 891.235 1066.48 912.871 1066.34 C 936.92 1065.58 963.313 1081.03 975.312 1101.98 C 989.158 1127.02 1002.89 1146.56 1035.13 1146.05 C 1076.88 1145.38 1100.12 1103.54 1080.76 1067.45 C 1065.05 1038.16 1035.87 1050.9 1014.6 1029.89 C 1002.06 1017.49 994.996 1003.13 994.25 985.272 C 991.715 961.302 1010.2 929.641 1034.44 922.752 C 1065.7 913.869 1086.33 903.249 1085.78 865.03 C 1084.73 850.091 1078.28 837.009 1066.98 827.587 C 1048.62 812.288 1026.63 812.161 1006.05 822.161 C 984.749 832.514 982.886 849.814 969.509 866.451 C 957.547 881.328 938.629 890.613 919.892 892.603 C 879.057 897.664 841.155 865.874 837.769 825.085 C 835.395 796.492 853.533 763.427 871.828 742.206 C 910.191 697.709 963.577 675.616 1021.52 671.41 z"/>
</svg>